<svg xmlns="http://www.w3.org/2000/svg" width="49.608" height="49.608" viewBox="0 0 49.608 49.608">
  <g id="git" transform="translate(-2 -2)">
    <path id="Path_4" data-name="Path 4" d="M3.037,29.308a3.541,3.541,0,0,1,0-5.008L24.3,3.037a3.541,3.541,0,0,1,5.008,0L50.571,24.3a3.541,3.541,0,0,1,0,5.008L29.308,50.571a3.541,3.541,0,0,1-5.008,0Z" fill="#ee513b"/>
    <path id="Path_5" data-name="Path 5" d="M13.087,5.062,10.934,7.215l5.561,5.561a3.768,3.768,0,0,0,2.085,5.112v13.6a3.765,3.765,0,1,0,3.045.172V17.907l5.316,5.316a3.76,3.76,0,1,0,2.274-2.033l-5.709-5.709a3.768,3.768,0,0,0-4.713-4.713Z" transform="translate(6.894 2.363)" fill="#fff"/>
  </g>
</svg>
