<svg xmlns="http://www.w3.org/2000/svg" width="44.089" height="50" viewBox="0 0 44.089 50">
  <g id="html" transform="translate(-3.655 -2)">
    <path id="Path_6" data-name="Path 6" d="M7.667,47,3.655,2H47.744L43.726,46.995,25.673,52Z" transform="translate(0)" fill="#e44f26"/>
    <path id="Path_7" data-name="Path 7" d="M16,46.413l14.866-4.031,3.5-38.321H16Z" transform="translate(9.281 1.689)" fill="#f1662a"/>
    <path id="Path_8" data-name="Path 8" d="M22.352,18.534H14.91L14.4,12.775h7.955V7.151H8.25l.135,1.51,1.381,15.5H22.352Z" transform="translate(3.539 3.96)" fill="#ebebeb"/>
    <path id="Path_9" data-name="Path 9" d="M21.556,24.212l-.025.007-6.263-1.69-.4-4.485H9.221l.788,8.829,11.522,3.2.025-.007Z" transform="translate(4.302 12.438)" fill="#ebebeb"/>
    <path id="Path_10" data-name="Path 10" d="M15.989,13.407v5.624h6.925l-.651,7.295-6.274,1.692V33.87l11.531-3.2.084-.95,1.321-14.806.138-1.51H15.989Z" transform="translate(9.519 8.703)" fill="#fff"/>
    <path id="Path_11" data-name="Path 11" d="M15.989,7.151v5.624H29.574l.113-1.263.257-2.851.135-1.51Z" transform="translate(9.5 4.026)" fill="#fff"/>
  </g>
</svg>
