<svg id="javascript" xmlns="http://www.w3.org/2000/svg" width="53" height="53" viewBox="0 0 53 53">
  <rect id="Rectangle_1" data-name="Rectangle 1" width="53" height="53" rx="26.5" fill="#f7df1e"/>
  <path id="Path_12" data-name="Path 12" d="M136.55,219.322a5.331,5.331,0,0,0,4.846,2.99c2.062,0,3.4-1.031,3.4-2.475,0-1.65-1.34-2.268-3.609-3.3l-1.237-.516c-3.609-1.547-5.98-3.4-5.98-7.424,0-3.712,2.784-6.6,7.218-6.6,3.2,0,5.465,1.134,7.011,4.021l-3.815,2.475c-.825-1.547-1.753-2.165-3.2-2.165a2.172,2.172,0,0,0-2.372,2.165c0,1.444.928,2.062,3.093,2.99l1.237.516c4.228,1.856,6.6,3.609,6.6,7.836,0,4.434-3.506,6.908-8.249,6.908-4.64,0-7.63-2.165-9.074-5.052Zm-17.529.412c.825,1.34,1.444,2.578,3.2,2.578,1.65,0,2.681-.619,2.681-3.093V202.1h4.949v16.91c0,5.155-2.99,7.424-7.424,7.424A7.6,7.6,0,0,1,115,221.9Z" transform="translate(-103.142 -181.172)"/>
</svg>
