<svg xmlns="http://www.w3.org/2000/svg" width="22.891" height="17.559" viewBox="0 0 37.891 29.559">
  <g id="Group_8" data-name="Group 8" transform="translate(-2802 402)">
    <path id="Path_1" data-name="Path 1" d="M3.769,0H34.121a3.769,3.769,0,1,1,0,7.538H3.769A3.769,3.769,0,0,1,3.769,0Z" transform="translate(2802 -402)" fill="#fff"/>
    <path id="Path_2" data-name="Path 2" d="M3.769,0H34.121a3.769,3.769,0,1,1,0,7.538H3.769A3.769,3.769,0,0,1,3.769,0Z" transform="translate(2802 -391.089)" fill="#fff"/>
    <path id="Path_3" data-name="Path 3" d="M3.769,0H34.121a3.769,3.769,0,1,1,0,7.538H3.769A3.769,3.769,0,0,1,3.769,0Z" transform="translate(2802 -379.98)" fill="#fff"/>
  </g>
</svg>