<svg xmlns="http://www.w3.org/2000/svg" width="48.639" height="48.64" viewBox="0 0 48.639 48.64">
  <g id="python" transform="translate(-2 -2)">
    <path id="Path_13" data-name="Path 13" d="M21.137,2a6.8,6.8,0,0,0-6.911,6.691v4.632H26.187V14.61H8.911A6.8,6.8,0,0,0,2,21.3V31.338a6.8,6.8,0,0,0,6.911,6.691H12.9V32.368a6.8,6.8,0,0,1,6.911-6.691H32.566a5.757,5.757,0,0,0,5.847-5.662V8.691A6.8,6.8,0,0,0,31.5,2Zm-1.595,8.235A2.317,2.317,0,1,0,17.15,7.919,2.355,2.355,0,0,0,19.542,10.235Z" transform="translate(0 0)" fill="#f7df1e" fill-rule="evenodd"/>
    <path id="Path_14" data-name="Path 14" d="M26.314,45.289A6.8,6.8,0,0,0,33.225,38.6V33.965H21.264V32.678H38.541a6.8,6.8,0,0,0,6.91-6.691V15.95a6.8,6.8,0,0,0-6.91-6.691H34.554v5.662a6.8,6.8,0,0,1-6.91,6.691H14.885a5.757,5.757,0,0,0-5.847,5.662V38.6a6.8,6.8,0,0,0,6.91,6.691Zm1.595-8.235A2.317,2.317,0,1,0,30.3,39.369,2.355,2.355,0,0,0,27.909,37.053Z" transform="translate(5.188 5.351)" fill="#1172b8" fill-rule="evenodd"/>
  </g>
</svg>
