<svg id="react" xmlns="http://www.w3.org/2000/svg" width="47.967" height="42.677" viewBox="0 0 47.967 42.677">
  <path id="Path_15" data-name="Path 15" d="M39.438,13.832q-.746-.257-1.544-.487.131-.534.239-1.053c1.169-5.674.4-10.245-2.205-11.749C33.425-.9,29.333.6,25.2,4.2q-.6.519-1.194,1.1-.4-.381-.795-.734C18.879.717,14.537-.9,11.93.606,9.43,2.053,8.69,6.35,9.742,11.727q.152.779.355,1.589c-.614.174-1.208.36-1.775.558C3.243,15.645,0,18.42,0,21.3c0,2.973,3.482,5.954,8.771,7.762q.626.214,1.3.406-.217.875-.377,1.712c-1,5.284-.22,9.479,2.274,10.917,2.575,1.485,6.9-.041,11.106-3.72q.5-.436,1-.922.65.626,1.3,1.183c4.077,3.508,8.1,4.924,10.594,3.482,2.573-1.489,3.409-6,2.323-11.48q-.124-.628-.288-1.282.455-.135.892-.279c5.5-1.822,9.077-4.767,9.077-7.78,0-2.889-3.348-5.682-8.528-7.466Zm-1.193,13.3q-.393.13-.806.252a48.071,48.071,0,0,0-2.429-6.077,48.055,48.055,0,0,0,2.334-5.988q.736.213,1.426.45c4.439,1.528,7.146,3.787,7.146,5.528,0,1.854-2.924,4.261-7.672,5.835Zm-1.97,3.9a17.355,17.355,0,0,1,.231,6.331,4.234,4.234,0,0,1-1.571,2.978c-1.512.875-4.744-.263-8.231-3.262q-.6-.516-1.206-1.1a48.114,48.114,0,0,0,4.021-5.105,47.824,47.824,0,0,0,6.5-1q.147.592.26,1.16ZM16.353,40.194a4.235,4.235,0,0,1-3.364.126c-1.513-.873-2.142-4.241-1.284-8.76q.147-.776.35-1.592a48.2,48.2,0,0,0,6.464.936,49.892,49.892,0,0,0,4.118,5.087q-.459.443-.914.842a17.356,17.356,0,0,1-5.37,3.361ZM9.434,27.121a17.356,17.356,0,0,1-5.594-2.972A4.234,4.234,0,0,1,2.049,21.3c0-1.747,2.6-3.974,6.947-5.489.527-.184,1.079-.357,1.651-.52a49.118,49.118,0,0,0,2.338,6.058,49.923,49.923,0,0,0-2.367,6.144q-.612-.176-1.184-.371Zm2.319-15.788c-.9-4.607-.3-8.082,1.2-8.954,1.6-.929,5.153.4,8.893,3.716q.359.318.72.664a49.1,49.1,0,0,0-4.086,5.057,50.08,50.08,0,0,0-6.4.995q-.187-.753-.33-1.478Zm20.691,5.109q-.712-1.23-1.459-2.4c1.53.193,3,.45,4.374.765a43.758,43.758,0,0,1-1.535,4.13q-.653-1.239-1.38-2.5ZM24.006,8.224a43.828,43.828,0,0,1,2.823,3.408q-1.407-.066-2.846-.067-1.423,0-2.824.066c.932-1.229,1.887-2.371,2.847-3.406Zm-8.492,8.232q-.711,1.233-1.354,2.48c-.6-1.415-1.107-2.807-1.524-4.151,1.369-.306,2.828-.557,4.349-.746q-.756,1.179-1.47,2.416ZM17.029,28.7a43.609,43.609,0,0,1-4.421-.711c.424-1.368.945-2.789,1.555-4.235q.644,1.244,1.36,2.482h0q.729,1.259,1.506,2.463Zm7.034,5.814c-.971-1.048-1.94-2.207-2.886-3.454q1.378.054,2.806.055,1.467,0,2.9-.064a43.594,43.594,0,0,1-2.816,3.464Zm9.78-10.833a43.447,43.447,0,0,1,1.611,4.22,43.47,43.47,0,0,1-4.474.763q.747-1.184,1.473-2.441t1.391-2.542ZM30.677,25.2c-.75,1.3-1.52,2.541-2.3,3.713-1.423.1-2.894.154-4.393.154s-2.945-.046-4.343-.137c-.813-1.187-1.6-2.432-2.345-3.719h0c-.743-1.283-1.427-2.578-2.047-3.865.62-1.29,1.3-2.586,2.04-3.867h0c.741-1.285,1.52-2.523,2.326-3.7,1.426-.108,2.889-.164,4.368-.164h0c1.485,0,2.95.057,4.376.165.793,1.171,1.568,2.405,2.311,3.69s1.443,2.586,2.068,3.849C32.115,22.6,31.426,23.9,30.677,25.2ZM34.9,2.318c1.606.926,2.231,4.662,1.222,9.561q-.1.469-.216.954A49.087,49.087,0,0,0,29.5,11.819a48.122,48.122,0,0,0-4.055-5.06q.553-.532,1.1-1.012c3.541-3.082,6.851-4.3,8.359-3.429Zm-10.921,14.7A4.283,4.283,0,1,1,19.7,21.3a4.283,4.283,0,0,1,4.283-4.283Z" fill="#00d8ff"/>
</svg>
