<svg xmlns="http://www.w3.org/2000/svg" width="45.886" height="50.464" viewBox="0 0 5.886 10.464">
  <g id="smartphone" transform="translate(-112)">
    <path id="Path_16" data-name="Path 16" d="M112.654,0h4.578a.654.654,0,0,1,.654.654V9.81a.654.654,0,0,1-.654.654h-4.578A.654.654,0,0,1,112,9.81V.654A.654.654,0,0,1,112.654,0Z" fill="#576d7e"/>
    <rect id="Rectangle_2" data-name="Rectangle 2" width="4.875" height="7.556" transform="translate(112.488 1.219)" fill="#c9d5e3"/>
    <g id="Group_1" data-name="Group 1" transform="translate(114.289 0.654)">
      <circle id="Ellipse_1" data-name="Ellipse 1" cx="0.488" cy="0.488" r="0.488" transform="translate(0.392 8.365)" fill="#3f556b"/>
      <path id="Path_17" data-name="Path 17" d="M225.471,32.327h-1.308a.163.163,0,0,1,0-.327h1.308a.163.163,0,0,1,0,.327Z" transform="translate(-224 -32)" fill="#3f556b"/>
    </g>
    <path id="Path_18" data-name="Path 18" d="M168.163,368h.327a.164.164,0,0,1,.163.163v.327a.164.164,0,0,1-.163.164h-.327a.164.164,0,0,1-.163-.164v-.327A.164.164,0,0,1,168.163,368Z" transform="translate(-54.856 -360.479)" fill="#3cb54a"/>
    <path id="Path_19" data-name="Path 19" d="M216.164,368h.327a.164.164,0,0,1,.163.163v.327a.164.164,0,0,1-.163.164h-.327a.164.164,0,0,1-.164-.164v-.327A.164.164,0,0,1,216.164,368Z" transform="translate(-101.875 -360.479)" fill="#4c9cd6"/>
    <g id="Group_2" data-name="Group 2" transform="translate(115.106 7.521)">
      <path id="Path_20" data-name="Path 20" d="M264.163,368h.327a.164.164,0,0,1,.163.163v.327a.164.164,0,0,1-.163.164h-.327a.164.164,0,0,1-.163-.164v-.327A.164.164,0,0,1,264.163,368Z" transform="translate(-264 -368)" fill="#de333f"/>
      <path id="Path_21" data-name="Path 21" d="M312.163,368h.327a.164.164,0,0,1,.163.163v.327a.164.164,0,0,1-.163.164h-.327a.164.164,0,0,1-.163-.164v-.327A.164.164,0,0,1,312.163,368Z" transform="translate(-311.019 -368)" fill="#de333f"/>
    </g>
    <path id="Path_22" data-name="Path 22" d="M148.9,32.327v8.829a.327.327,0,0,1-.327.327h-4.251a.327.327,0,0,0-.327.327h4.578a.654.654,0,0,0,.654-.654V32h0A.327.327,0,0,0,148.9,32.327Z" transform="translate(-31.346 -31.346)" fill="#3f556b"/>
    <g id="Group_3" data-name="Group 3" transform="translate(112.49 2.125)">
      <path id="Path_23" data-name="Path 23" d="M140.9,104l-4.9,3.433v.49l4.9-3.433Z" transform="translate(-136 -104)" fill="#e2e7f0"/>
      <path id="Path_24" data-name="Path 24" d="M140.9,152l-4.9,3.433v1.308l4.9-3.433Z" transform="translate(-136 -151.019)" fill="#e2e7f0"/>
    </g>
    <path id="Path_25" data-name="Path 25" d="M168.163,104h.327a.164.164,0,0,1,.163.163v.327a.164.164,0,0,1-.163.163h-.327a.164.164,0,0,1-.163-.163v-.327A.164.164,0,0,1,168.163,104Z" transform="translate(-54.856 -101.875)" fill="#ecf0f9"/>
    <path id="Path_26" data-name="Path 26" d="M216.164,104h.327a.164.164,0,0,1,.163.163v.327a.164.164,0,0,1-.163.163h-.327a.164.164,0,0,1-.164-.163v-.327A.164.164,0,0,1,216.164,104Z" transform="translate(-101.875 -101.875)" fill="#4c9cd6"/>
    <path id="Path_27" data-name="Path 27" d="M264.163,104h.327a.164.164,0,0,1,.163.163v.327a.164.164,0,0,1-.163.163h-.327a.164.164,0,0,1-.163-.163v-.327A.164.164,0,0,1,264.163,104Z" transform="translate(-148.894 -101.875)" fill="#3f556b"/>
    <path id="Path_28" data-name="Path 28" d="M312.163,104h.327a.164.164,0,0,1,.163.163v.327a.164.164,0,0,1-.163.163h-.327a.164.164,0,0,1-.163-.163v-.327A.164.164,0,0,1,312.163,104Z" transform="translate(-195.913 -101.875)" fill="#3cb54a"/>
    <path id="Path_29" data-name="Path 29" d="M168.163,168h.327a.164.164,0,0,1,.163.163v.327a.164.164,0,0,1-.163.163h-.327a.164.164,0,0,1-.163-.163v-.327A.164.164,0,0,1,168.163,168Z" transform="translate(-54.856 -164.567)" fill="#748b9e"/>
    <path id="Path_30" data-name="Path 30" d="M216.164,168h.327a.164.164,0,0,1,.163.163v.327a.164.164,0,0,1-.163.163h-.327a.164.164,0,0,1-.164-.163v-.327A.164.164,0,0,1,216.164,168Z" transform="translate(-101.875 -164.567)" fill="#3f556b"/>
    <path id="Path_31" data-name="Path 31" d="M264.163,168h.327a.164.164,0,0,1,.163.163v.327a.164.164,0,0,1-.163.163h-.327a.164.164,0,0,1-.163-.163v-.327A.164.164,0,0,1,264.163,168Z" transform="translate(-148.894 -164.567)" fill="#4c9cd6"/>
    <path id="Path_32" data-name="Path 32" d="M312.163,168h.327a.164.164,0,0,1,.163.163v.327a.164.164,0,0,1-.163.163h-.327a.164.164,0,0,1-.163-.163v-.327A.164.164,0,0,1,312.163,168Z" transform="translate(-195.913 -164.567)" fill="#748b9e"/>
    <path id="Path_33" data-name="Path 33" d="M168.163,232h.327a.164.164,0,0,1,.163.163v.327a.164.164,0,0,1-.163.163h-.327a.164.164,0,0,1-.163-.163v-.327A.164.164,0,0,1,168.163,232Z" transform="translate(-54.856 -227.259)" fill="#3cb54a"/>
    <path id="Path_34" data-name="Path 34" d="M216.164,232h.327a.164.164,0,0,1,.163.163v.327a.164.164,0,0,1-.163.163h-.327a.164.164,0,0,1-.164-.163v-.327A.164.164,0,0,1,216.164,232Z" transform="translate(-101.875 -227.259)" fill="#748b9e"/>
    <path id="Path_35" data-name="Path 35" d="M264.163,232h.327a.164.164,0,0,1,.163.163v.327a.164.164,0,0,1-.163.163h-.327a.164.164,0,0,1-.163-.163v-.327A.164.164,0,0,1,264.163,232Z" transform="translate(-148.894 -227.259)" fill="#de333f"/>
  </g>
</svg>
